<svg xmlns="http://www.w3.org/2000/svg" xmlns:xlink="http://www.w3.org/1999/xlink"><defs><style>
    .sprite-symbol-usage {display: none;}
    .sprite-symbol-usage:target {display: inline;}
  </style><symbol viewBox="0 0 16 16" id="arrow-down"><path stroke="#F98560" stroke-width="2" d="M4 6l4 4 4-4" fill="none" /></symbol><symbol viewBox="0 0 40 40" id="arrow-left"><path stroke="#4B4642" stroke-width="2" d="M22 15l-4 5.16L22 25" fill="none" fill-rule="evenodd" /></symbol><symbol viewBox="0 0 40 40" id="arrow-right"><path stroke="#4B4642" stroke-width="2" d="M18 15l4 5.16L18 25" fill="none" fill-rule="evenodd" /></symbol><symbol viewBox="0 0 16 16" id="arrow-up"><path stroke="#F98560" stroke-width="2" d="M4 10l4-4 4 4" fill="none" /></symbol><symbol viewBox="0 0 26 26" id="bar"><g transform="translate(1 1)" stroke="#FFA128" stroke-width="2" fill="none" fill-rule="evenodd"><circle cx="12" cy="12" r="12" /><path d="M12 12.333L16 7H8l4 5.333z" /><path d="M12 12v4m-2 2h4" stroke-linecap="square" /></g></symbol><symbol viewBox="0 0 24 24" id="bar-filled"><g fill="none" fill-rule="evenodd"><circle fill="#FFA128" cx="12" cy="12" r="12" /><path d="M12 12.333L16 7H8l4 5.333z" stroke="#FFF" stroke-width="2" /><path d="M12 12v4m-2 2h4" stroke="#FFF" stroke-width="2" stroke-linecap="square" /></g></symbol><symbol viewBox="0 0 24 24" id="bar-mono"><path d="M6 6l5 6.666V17H9v2h6v-2h-2v-4.334L18 6H6zm4 2h4l-2 2.667L10 8z" fill-rule="evenodd" /></symbol><symbol viewBox="0 0 24 24" id="cafe"><g stroke="#ED795F" stroke-width="2" fill="none" fill-rule="evenodd"><circle cx="12" cy="12" r="11" /><path d="M7 10v6a2 2 0 0 0 2 2h4a2 2 0 0 0 2-2v-6H7zm2.523-7c0 1.25.477 1.25.477 2.5S9.523 6.75 9.523 8m3-5c0 1.25.477 1.25.477 2.5s-.477 1.25-.477 2.5M15 11h1a2 2 0 0 1 2 2v.558a2 2 0 0 1-1.368 1.898L15 16" /></g></symbol><symbol viewBox="0 0 24 24" id="cafe-filled"><g fill="none" fill-rule="evenodd"><circle fill="#ED795F" cx="12" cy="12" r="12" /><path d="M7 10v6a2 2 0 0 0 2 2h4a2 2 0 0 0 2-2v-6H7zm2.523-7c0 1.25.477 1.25.477 2.5S9.523 6.75 9.523 8m3-5c0 1.25.477 1.25.477 2.5s-.477 1.25-.477 2.5M15 11h1a2 2 0 0 1 2 2v.558a2 2 0 0 1-1.368 1.898L15 16" stroke="#FFF" stroke-width="2" /></g></symbol><symbol viewBox="0 0 24 24" id="cafe-mono"><path d="M8 11.261v5a1 1 0 0 0 1 1h4a1 1 0 0 0 1-1v-5H8zm8-1a3 3 0 0 1 3 3v.559a3 3 0 0 1-2.051 2.846l-1.044.348A3.001 3.001 0 0 1 13 19.26H9a3 3 0 0 1-3-3v-7h10v1zm0 2v2.613l.316-.105a1 1 0 0 0 .684-.95v-.558a1 1 0 0 0-1-1zM8.261 3h2c0 .382.034.529.173.893.22.573.305.947.305 1.607s-.086 1.034-.305 1.607c-.139.364-.173.511-.173.893h-2c0-.66.086-1.033.305-1.607.139-.364.173-.511.173-.893s-.034-.529-.173-.893C8.346 4.033 8.26 3.66 8.26 3zm3 0h2c0 .382.034.529.173.893.22.573.305.947.305 1.607s-.086 1.034-.305 1.607c-.139.364-.173.511-.173.893h-2c0-.66.086-1.033.305-1.607.139-.364.173-.511.173-.893s-.034-.529-.173-.893c-.22-.574-.305-.947-.305-1.607z" /></symbol><symbol viewBox="0 0 20 20" id="check"><path stroke="#FFF" stroke-width="2" d="M5 9.637l3.636 3.517L15 7" fill="none" fill-rule="evenodd" /></symbol><symbol viewBox="0 0 24 24" id="clock"><g fill="#000" fill-rule="evenodd"><path d="M12 18.5v.5c-3.86 0-7-3.14-7-7s3.14-7 7-7 7 3.14 7 7-3.14 7-7 7v-.5zm0 0V18c3.308 0 6-2.692 6-6 0-3.309-2.692-6-6-6s-6 2.691-6 6c0 3.308 2.692 6 6 6v.5z" fill-rule="nonzero" /><path d="M14.592 12.826h-3.153a.408.408 0 0 1-.408-.408V8.652a.408.408 0 0 1 .816 0v3.358h2.745a.407.407 0 1 1 0 .816" /></g></symbol><symbol viewBox="0 0 24 24" id="comment"><path d="M18.364 7.5H5.636c-.08 0-.136.055-.136.111v7.76c0 .057.057.112.136.112h2.505l.112.062 4.309 2.364a.155.155 0 0 0 .151-.001c.039-.022.06-.057.06-.092v-2.333h5.59c.08 0 .137-.055.137-.111v-7.76c0-.057-.057-.112-.136-.112z" fill-rule="nonzero" stroke="#000" fill="none" /></symbol><symbol viewBox="0 0 95 11" id="divider"><path d="M2 9c5.685 0 5.685-7 11.37-7 5.686 0 5.686 7 11.371 7 5.686 0 5.686-7 11.37-7C41.8 2 41.8 9 47.486 9c5.689 0 5.689-7 11.378-7 5.687 0 5.687 7 11.374 7 5.691 0 5.691-7 11.382-7S87.31 9 93 9" stroke="#ED795F" stroke-width="3" fill="none" fill-rule="evenodd" stroke-linecap="square" /></symbol><symbol viewBox="0 0 16 16" id="edit"><g fill="#000" fill-rule="nonzero"><path d="M10.957 3.042l2.31 2.311-1.413 1.414-2.311-2.31zM11 7.673L8.327 5l-5.662 5.663L2 14l3.337-.665z" /></g></symbol><symbol viewBox="0 0 40 40" id="email"><g fill="#000" fill-rule="nonzero"><path d="M21.547 20.4a.793.793 0 0 0-1.118 0 2.382 2.382 0 0 1-3.357 0l-2.796-2.787a2.344 2.344 0 0 1-.694-1.673c0-.633.246-1.226.694-1.673a2.382 2.382 0 0 1 3.357 0l1.718 1.713a.793.793 0 0 0 1.118 0 .787.787 0 0 0 0-1.114l-1.719-1.714a3.968 3.968 0 0 0-5.592 0A3.905 3.905 0 0 0 12 15.94a3.91 3.91 0 0 0 1.158 2.787l2.796 2.788a3.958 3.958 0 0 0 2.796 1.152 3.958 3.958 0 0 0 2.797-1.152.787.787 0 0 0 0-1.114z" /><path d="M26.839 21.273l-2.795-2.787a3.966 3.966 0 0 0-5.59 0 .787.787 0 0 0 0 1.114.792.792 0 0 0 1.117 0 2.381 2.381 0 0 1 3.355 0l2.796 2.788c.448.447.694 1.04.694 1.673s-.246 1.226-.694 1.673c-.897.894-2.46.894-3.356 0l-1.715-1.714a.792.792 0 0 0-1.118 0 .787.787 0 0 0 0 1.115l1.719 1.71A3.933 3.933 0 0 0 24.047 28c1.055 0 2.048-.41 2.795-1.155A3.911 3.911 0 0 0 28 24.058a3.92 3.92 0 0 0-1.161-2.785z" /></g></symbol><symbol viewBox="0 0 40 40" id="email-color"><g fill="#4B4642" fill-rule="nonzero"><path d="M21.547 20.4a.793.793 0 0 0-1.118 0 2.382 2.382 0 0 1-3.357 0l-2.796-2.787a2.344 2.344 0 0 1-.694-1.673c0-.633.246-1.226.694-1.673a2.382 2.382 0 0 1 3.357 0l1.718 1.713a.793.793 0 0 0 1.118 0 .787.787 0 0 0 0-1.114l-1.719-1.714a3.968 3.968 0 0 0-5.592 0A3.905 3.905 0 0 0 12 15.94a3.91 3.91 0 0 0 1.158 2.787l2.796 2.788a3.958 3.958 0 0 0 2.796 1.152 3.958 3.958 0 0 0 2.797-1.152.787.787 0 0 0 0-1.114z" /><path d="M26.839 21.273l-2.795-2.787a3.966 3.966 0 0 0-5.59 0 .787.787 0 0 0 0 1.114.792.792 0 0 0 1.117 0 2.381 2.381 0 0 1 3.355 0l2.796 2.788c.448.447.694 1.04.694 1.673s-.246 1.226-.694 1.673c-.897.894-2.46.894-3.356 0l-1.715-1.714a.792.792 0 0 0-1.118 0 .787.787 0 0 0 0 1.115l1.719 1.71A3.933 3.933 0 0 0 24.047 28c1.055 0 2.048-.41 2.795-1.155A3.911 3.911 0 0 0 28 24.058a3.92 3.92 0 0 0-1.161-2.785z" /></g></symbol><symbol viewBox="0 0 24 24" id="explore"><path d="M13.768 5.476l1.6.01-.068 12.038-1.6-.01z" /><path d="M4.8 6.153v11.183l4.544.85 5.004-.971.295-.002 4.557.828V7.561l-4.69-1.706-4.873 1.89-.57.004L4.8 6.153zm4.7 13.632l-.3.001-5.347-1L3.2 18V5l1.08-.75 5.062 1.894 4.869-1.89.562-.006 5.5 2L20.8 7v12l-.943.787-5.352-.973-5.005.971z" /><path d="M8.665 6.925h1.6v11.551h-1.6z" /></symbol><symbol viewBox="0 0 24 24" id="eye"><path d="M12 18c-2.65 0-4.892-1.047-6.719-2.773-1.084-1.025-1.8-2.051-2.17-2.768a1 1 0 0 1 0-.918c.37-.717 1.086-1.743 2.17-2.768C7.108 7.047 9.351 6 12 6c2.65 0 4.892 1.047 6.719 2.773 1.084 1.025 1.8 2.051 2.17 2.768a1 1 0 0 1 0 .918c-.37.717-1.086 1.743-2.17 2.768C16.892 16.953 14.649 18 12 18zm-6.692-5.79c.372.532.821 1.066 1.347 1.563C8.135 15.173 9.908 16 12 16c2.092 0 3.865-.828 5.345-2.227A10.125 10.125 0 0 0 18.834 12a10.14 10.14 0 0 0-1.489-1.773C15.865 8.827 14.092 8 12 8c-2.092 0-3.865.828-5.345 2.227A10.125 10.125 0 0 0 5.166 12c.043.065.09.135.142.21z" /><path d="M12 13a1 1 0 1 0 0-2 1 1 0 0 0 0 2zm0 2a3 3 0 1 1 0-6 3 3 0 0 1 0 6zm-1 5a1 1 0 0 1 2 0v1a1 1 0 0 1-2 0v-1zM5.634 4.634a1 1 0 1 1 1.732-1l.5.866a1 1 0 1 1-1.732 1l-.5-.866zm10 15a1 1 0 1 1 1.732-1l.5.866a1 1 0 0 1-1.732 1l-.5-.866zm1-16a1 1 0 0 1 1.732 1l-.5.866a1 1 0 0 1-1.732-1l.5-.866zm-10 15a1 1 0 1 1 1.732 1l-.5.866a1 1 0 1 1-1.732-1l.5-.866zM11 3a1 1 0 0 1 2 0v1a1 1 0 0 1-2 0V3z" /></symbol><symbol viewBox="0 0 40 40" id="facebook"><path d="M27.117 12H12.883a.883.883 0 0 0-.883.883v14.234c0 .488.395.883.883.883h7.663v-6.196H18.46V19.39h2.086v-1.783c0-2.066 1.262-3.19 3.106-3.19.883 0 1.642.064 1.863.094v2.16h-1.28c-1 0-1.195.48-1.195 1.18v1.54h2.39l-.31 2.42h-2.08V28h4.077a.883.883 0 0 0 .883-.883V12.883a.883.883 0 0 0-.883-.883" fill="#000" fill-rule="evenodd" /></symbol><symbol viewBox="0 0 40 40" id="facebook-color"><path d="M21.64 28.73V21.1H24.2l.384-2.975H21.64v-1.899c0-.861.239-1.448 1.474-1.448h1.575v-2.66A21.08 21.08 0 0 0 22.394 12c-2.271 0-3.826 1.386-3.826 3.932v2.193H16v2.974h2.568v7.632h3.072" fill="#3B5998" fill-rule="evenodd" /></symbol><symbol viewBox="0 0 40 40" id="facebook-sign"><path d="M21.64 28.73V21.1H24.2l.384-2.975H21.64v-1.899c0-.861.239-1.448 1.474-1.448h1.575v-2.66A21.08 21.08 0 0 0 22.394 12c-2.271 0-3.826 1.386-3.826 3.932v2.193H16v2.974h2.568v7.632h3.072" fill="#000" fill-rule="nonzero" /></symbol><symbol viewBox="0 0 24 24" id="filter"><g fill-rule="evenodd"><path d="M15.5 6a1.5 1.5 0 1 0 .002 3.002A1.5 1.5 0 0 0 15.5 6m0 4A2.503 2.503 0 0 1 13 7.5C13 6.123 14.122 5 15.5 5S18 6.122 18 7.5 16.878 10 15.5 10m-7 1a1.5 1.5 0 1 0 .002 3.002A1.5 1.5 0 0 0 8.5 11m0 4A2.503 2.503 0 0 1 6 12.5C6 11.123 7.122 10 8.5 10s2.5 1.122 2.5 2.5S9.878 15 8.5 15" /><path fill-rule="nonzero" d="M4 7h9v1H4z" /><path d="M15.5 16a1.5 1.5 0 1 0 .002 3.002A1.5 1.5 0 0 0 15.5 16m0 4a2.503 2.503 0 0 1-2.5-2.5c0-1.378 1.122-2.5 2.5-2.5s2.5 1.122 2.5 2.5-1.122 2.5-2.5 2.5" /><path fill-rule="nonzero" d="M4 17h9v1H4zm6-5h10v1H10zm-6 0h2v1H4zm14-5h2v1h-2zm0 10h2v1h-2z" /></g></symbol><symbol viewBox="0 0 24 24" id="hamburger"><g fill="#000" fill-rule="evenodd"><path d="M4 5h16v2H4zM4 11h16v2H4zM4 17h16v2H4z" /></g></symbol><symbol viewBox="0 0 12 12" id="heart"><path d="M6 11.286c-.168 0-.615 0-5.017-4.68a3.223 3.223 0 0 1 .006-4.644C2.305.68 4.446.68 5.762 1.962c.084.081.163.167.238.257.075-.09.154-.176.238-.258C7.554.68 9.695.68 11.011 1.961a3.224 3.224 0 0 1 0 4.65C6.615 11.286 6.168 11.286 6 11.286z" fill="#F98560" fill-rule="nonzero" /></symbol><symbol viewBox="0 0 12 12" id="heart-border"><path d="M6 10.414c.1-.072.232-.177.4-.32.775-.664 2.075-1.953 4.053-4.056a2.424 2.424 0 0 0 0-3.504 2.643 2.643 0 0 0-3.656 0 2.589 2.589 0 0 0-.182.197L6 3.47l-.615-.74a2.56 2.56 0 0 0-.182-.196 2.643 2.643 0 0 0-3.656 0A2.424 2.424 0 0 0 .8 4.286c0 .66.262 1.277.766 1.771C3.522 8.137 4.824 9.43 5.6 10.093c.167.144.3.25.4.321zm0 .072s0 0 0 0h0s0 0 0 0z" stroke="#000" stroke-width="1.6" fill="none" fill-rule="evenodd" /></symbol><symbol viewBox="0 0 24 24" id="hood"><g fill="#000" fill-rule="evenodd"><path d="M15 17h3v-5.004h-3V17zm-5-9h4v9h-4V8zm-4 5.997h3V17H6v-3.003zM15 11V8a1 1 0 0 0-1-1h-4a1 1 0 0 0-1 1v5H6a1 1 0 0 0-1 1v3a1 1 0 0 0 1 1h12a1 1 0 0 0 1-1v-5a1 1 0 0 0-1-1h-3z" /><path d="M16.384 13.937h1.232c.213 0 .384-.209.384-.469 0-.259-.171-.468-.384-.468h-1.232c-.212 0-.384.209-.384.468 0 .26.172.469.384.469M16.384 15.937h1.232c.213 0 .384-.21.384-.469S17.829 15 17.616 15h-1.232c-.212 0-.384.209-.384.468s.172.469.384.469M8.616 15H7.384c-.213 0-.384.209-.384.469 0 .259.171.468.384.468h1.232c.212 0 .384-.209.384-.468 0-.26-.172-.469-.384-.469M12.682 13h-1.364c-.175 0-.318.209-.318.469 0 .259.143.468.318.468h1.364c.175 0 .318-.209.318-.468 0-.26-.143-.469-.318-.469M12.682 11h-1.364c-.175 0-.318.209-.318.469 0 .259.143.468.318.468h1.364c.175 0 .318-.209.318-.468 0-.26-.143-.469-.318-.469M12.682 15h-1.364c-.175 0-.318.209-.318.469 0 .259.143.468.318.468h1.364c.175 0 .318-.209.318-.468 0-.26-.143-.469-.318-.469M12.682 9h-1.364c-.175 0-.318.209-.318.469 0 .259.143.468.318.468h1.364c.175 0 .318-.209.318-.468 0-.26-.143-.469-.318-.469" /></g></symbol><symbol viewBox="0 0 24 24" id="hotel"><g stroke="#E284A3" stroke-width="2" fill="none" fill-rule="evenodd"><circle cx="12" cy="12" r="11" /><path d="M14.5 18.5v1" stroke-linecap="square" /><rect x="7" y="8" width="10" height="10" rx="2" /><path d="M10 8V5a1 1 0 0 1 1-1h2a1 1 0 0 1 1 1v3" /><path d="M9.5 18.5v1" stroke-linecap="square" /></g></symbol><symbol viewBox="0 0 24 24" id="hotel-filled"><g fill="none" fill-rule="evenodd"><circle fill="#E284A3" cx="12" cy="12" r="12" /><rect stroke="#FFF" stroke-width="2" x="7" y="8" width="10" height="10" rx="2" /><path d="M10 8V5a1 1 0 0 1 1-1h2a1 1 0 0 1 1 1v3" stroke="#FFF" stroke-width="2" /><path d="M9.5 18.5v1m5-1v1" stroke="#FFF" stroke-width="2" stroke-linecap="square" /></g></symbol><symbol viewBox="0 0 24 24" id="hotel-mono"><path d="M8 9v8h8V9H8zm7.5 10v1.5h-2V19h-3v1.5h-2V19H8a2 2 0 0 1-2-2V9a2 2 0 0 1 2-2h1V5a2 2 0 0 1 2-2h2a2 2 0 0 1 2 2v2h1a2 2 0 0 1 2 2v8a2 2 0 0 1-2 2h-.5zM11 7h2V5h-2v2z" /></symbol><symbol viewBox="0 0 24 24" id="iconic"><path d="M5 10.389L12.537 19 20 10.39l-1.282-2.667C17.91 6.043 16.45 5 14.905 5h-4.81C8.548 5 7.087 6.043 6.28 7.723L5 10.389zM12.51 20a.498.498 0 0 1-.164-.028.522.522 0 0 1-.319-.659l2.98-8.96a.508.508 0 0 1 .646-.325c.267.092.41.387.32.659l-2.98 8.96a.511.511 0 0 1-.483.353m-3.379-9H5.46c-.254 0-.46-.224-.46-.5s.206-.5.46-.5h14.08c.254 0 .46.224.46.5s-.206.5-.46.5h-9.332l2.765 8.313a.522.522 0 0 1-.32.66.512.512 0 0 1-.647-.325L9.131 11zm3.408 9a.505.505 0 0 1-.379-.173l-8.027-9.083a.54.54 0 0 1-.08-.59l1.417-2.92C6.437 5.24 8.225 4 10.135 4h4.73c1.91 0 3.697 1.24 4.665 3.235l1.416 2.92a.539.539 0 0 1-.077.587l-7.95 9.084a.506.506 0 0 1-.379.174h-.001zm2.94-9a.517.517 0 0 1-.457-.292L12.5 5.725l-2.522 4.983a.504.504 0 0 1-.705.225.576.576 0 0 1-.21-.754l2.98-5.887A.517.517 0 0 1 12.5 4c.191 0 .367.112.458.292l2.98 5.887a.576.576 0 0 1-.21.754.493.493 0 0 1-.248.067" stroke="#B8AA9F" stroke-width=".5" fill="#B8AA9F" fill-rule="evenodd" /></symbol><symbol viewBox="0 0 40 40" id="instagram"><path d="M20 12c-2.173 0-2.445.01-3.298.048-.852.04-1.432.174-1.942.372a3.908 3.908 0 0 0-1.417.923c-.445.444-.72.89-.923 1.417-.198.51-.333 1.09-.372 1.942-.04.853-.048 1.125-.048 3.298s.01 2.445.048 3.298c.04.852.174 1.433.372 1.942.204.526.478.973.923 1.417.444.445.89.72 1.417.923.51.198 1.09.333 1.942.372.853.04 1.125.048 3.298.048s2.445-.01 3.298-.048c.852-.04 1.433-.174 1.942-.372a3.908 3.908 0 0 0 1.417-.923c.445-.444.72-.89.923-1.417.198-.51.333-1.09.372-1.942.04-.853.048-1.125.048-3.298s-.01-2.445-.048-3.298c-.04-.852-.174-1.433-.372-1.942a3.908 3.908 0 0 0-.923-1.417 3.886 3.886 0 0 0-1.417-.923c-.51-.198-1.09-.333-1.942-.372C22.445 12.008 22.173 12 20 12zm0 1.44c2.136 0 2.39.01 3.233.048.78.036 1.203.166 1.485.276.374.145.64.318.92.598.28.28.453.546.598.92.11.282.24.705.276 1.485.038.844.047 1.097.047 3.233s-.01 2.39-.05 3.233c-.04.78-.17 1.203-.28 1.485-.15.374-.32.64-.6.92-.28.28-.55.453-.92.598-.28.11-.71.24-1.49.276-.85.038-1.1.047-3.24.047s-2.39-.01-3.24-.05c-.78-.04-1.21-.17-1.49-.28a2.49 2.49 0 0 1-.92-.6c-.28-.28-.46-.55-.6-.92-.11-.28-.24-.71-.28-1.49-.03-.84-.04-1.1-.04-3.23s.01-2.39.04-3.24c.04-.78.17-1.21.28-1.49.14-.38.32-.64.6-.92.28-.28.54-.46.92-.6.28-.11.7-.24 1.48-.28.85-.03 1.1-.04 3.24-.04l.031.021zm0 2.452a4.108 4.108 0 1 0 0 8.215 4.108 4.108 0 0 0 0-8.215zm0 6.775a2.667 2.667 0 1 1 0-5.334 2.667 2.667 0 0 1 0 5.334zm5.23-6.937a.96.96 0 1 1-1.92 0 .96.96 0 0 1 1.92 0z" fill="#000" fill-rule="evenodd" /></symbol><symbol viewBox="0 0 24 24" id="itinerary"><g fill="#000" fill-rule="evenodd"><path d="M17.389 7l-1.222-1.1c-.184-.166-.222-.48-.084-.7.138-.22.4-.266.584-.1l1.666 1.5c.223.2.223.6 0 .8l-1.666 1.5c-.184.166-.446.12-.584-.1-.138-.22-.1-.534.084-.7L17.389 7zM14 12.5a.5.5 0 1 1 0-1h1c2.191 0 3.5 1.145 3.5 3s-1.309 3-3.5 3H9a.5.5 0 1 1 0-1h6c1.666 0 2.5-.73 2.5-2s-.834-2-2.5-2h-1z" fill-rule="nonzero" /><path d="M18 6.5a.5.5 0 1 1 0 1H9c-.916 0-2 .948-2 2s1.084 2 2 2h2a.5.5 0 0 1 0 1H9c-1.441 0-3-1.364-3-3s1.559-3 3-3h9z" fill-rule="nonzero" /><circle stroke="#000" cx="12.5" cy="12" r="1" /><circle stroke="#000" cx="7.5" cy="17" r="1" /></g></symbol><symbol viewBox="0 0 40 40" id="like"><path d="M20 26.157c.153-.098.383-.277.7-.555 1.043-.91 2.782-2.672 5.418-5.532a3.632 3.632 0 0 0 1.082-2.597c0-.982-.383-1.902-1.082-2.597a3.723 3.723 0 0 0-5.498.289l-.62.76-.62-.76a3.723 3.723 0 0 0-5.498-.289 3.633 3.633 0 0 0-1.082 2.597c0 .979.38 1.896 1.099 2.614 2.615 2.839 4.357 4.602 5.4 5.514.317.278.548.458.701.556zm0 .043s0 0 0 0h0s0 0 0 0z" stroke="#4B4642" stroke-width="1.6" fill="none" fill-rule="evenodd" /></symbol><symbol viewBox="0 0 40 40" id="liked"><path d="M20 26c-.196 0-.717 0-5.853-5.46A3.76 3.76 0 0 1 13 17.834a3.76 3.76 0 0 1 1.153-2.712c1.536-1.496 4.034-1.496 5.569 0 .098.095.19.196.278.3.087-.104.18-.205.278-.3 1.535-1.496 4.033-1.496 5.569 0a3.762 3.762 0 0 1 0 5.424C20.717 26 20.197 26 20 26z" fill="#F98560" fill-rule="nonzero" /></symbol><symbol viewBox="0 0 24 24" id="location"><g fill-rule="evenodd"><path d="M11.97 8.133c-.857 0-1.554.659-1.554 1.467 0 .809.697 1.466 1.553 1.466.855 0 1.553-.657 1.553-1.466 0-.808-.698-1.467-1.553-1.467m0 4c-1.48 0-2.682-1.136-2.682-2.533s1.202-2.533 2.682-2.533 2.683 1.136 2.683 2.533-1.204 2.534-2.683 2.534" /><path d="M11.97 18.968v.5c-.245 0-.484-.083-.676-.239-.737-.603-1.732-1.564-2.71-2.804C6.97 14.377 6 12.267 6 10.183 6 6.618 8.519 4 11.97 4c3.45 0 5.97 2.618 5.97 6.183 0 2.112-.972 4.23-2.589 6.27-.979 1.234-1.961 2.174-2.715 2.782a1.07 1.07 0 0 1-.667.233v-.5zm0 0v-.5a.068.068 0 0 0 .039-.012c.7-.565 1.632-1.456 2.559-2.624 1.49-1.88 2.371-3.803 2.371-5.649C16.94 7.163 14.86 5 11.97 5S7 7.161 7 10.183c0 1.818.882 3.735 2.37 5.623.926 1.175 1.871 2.088 2.557 2.649.01.007.025.013.042.013v.5z" fill-rule="nonzero" /></g></symbol><symbol viewBox="0 0 24 24" id="phone"><path d="M10.53 10.843c.32.52.709 1.01 1.161 1.462.456.456.949.847 1.472 1.168l.7-.908a1.757 1.757 0 0 1 2.632-.169l1.491 1.492a1.759 1.759 0 0 1 0 2.485l-.98.982c-.757.757-1.748 1.145-2.867 1.145h0c-1.836 0-3.91-1.04-5.755-2.886-3.013-3.015-3.794-6.57-1.74-8.626.072-.072.15-.143.21-.192l.78-.781c.331-.331.774-.515 1.242-.515.469 0 .911.183 1.242.515l1.491 1.492a1.758 1.758 0 0 1-.168 2.632l-.91.704z" fill-rule="nonzero" stroke="#000" fill="none" /></symbol><symbol viewBox="0 0 24 24" id="place"><g stroke="#4A90E2" stroke-width="2" fill="none" fill-rule="evenodd"><circle cx="12" cy="12" r="11" /><path d="M8 11v4m4-4v4m4-4v4M6 17h12M6 9l6.094-3L18 9" stroke-linecap="square" /></g></symbol><symbol viewBox="0 0 24 24" id="place-filled"><g fill="none" fill-rule="evenodd"><circle fill="#4A90E2" cx="12" cy="12" r="12" /><path d="M8 11v4m4-4v4m4-4v4M6 17h12M6 9l6.094-3L18 9" stroke="#FFF" stroke-width="2" stroke-linecap="square" /></g></symbol><symbol viewBox="0 0 24 24" id="place-mono"><path d="M9.339 16.118h2v-6h2v6h2v-6h2v6h2v2h-14v-2h2v-6h2v6zm-3.456-5.661L5 8.663 12.44 5l7.243 3.68-.905 1.783-6.352-3.227-6.543 3.22z" /></symbol><symbol viewBox="0 0 24 24" id="radar"><path d="M13.704 7.513a6.27 6.27 0 0 1-1.193 1.501c-.29.264-.574.494-1.174.965-.128.107-.243.2-.486.395-.29.233-.416.335-.574.469a13.94 13.94 0 0 0-.884.878 2.702 2.702 0 0 0-.421.77c-.094.263-.152.606-.181 1.086 0 .53.084 1.072.253 1.637.136.45.348.902.6 1.282.252.341.506.63.785.888a4.31 4.31 0 0 1 .374-.896 6.166 6.166 0 0 1 1.193-1.502c.22-.199.473-.41.818-.684l.193-.153.163-.128c.123-.103.185-.153.482-.392.295-.237.439-.354.612-.5a6.65 6.65 0 0 0 .84-.838 2.71 2.71 0 0 0 .43-.781 3.2 3.2 0 0 0 .181-1.064c0-.55-.082-1.093-.252-1.66a4.923 4.923 0 0 0-.601-1.282 6.18 6.18 0 0 0-.784-.889c-.09.312-.216.613-.374.898zm.35-2.224c.116.092.2.161.416.34.442.365.827.778 1.21 1.301.32.48.576 1.021.74 1.568.198.66.295 1.298.295 1.948 0 .48-.082.962-.238 1.4-.14.393-.341.755-.6 1.077a7.55 7.55 0 0 1-.97.972c-.179.15-.327.272-.629.513-.29.234-.35.284-.478.39l-.173.136-.19.15c-.33.263-.57.461-.764.638a5.19 5.19 0 0 0-.997 1.253 3.37 3.37 0 0 0-.413 1.383l-.072.943-.739-.59a23.981 23.981 0 0 1-.415-.34 7 7 0 0 1-1.211-1.302 5.963 5.963 0 0 1-.74-1.567 6.716 6.716 0 0 1-.294-1.954c.035-.596.107-1.027.238-1.394.139-.39.339-.752.602-1.08.29-.32.615-.645.968-.969l.032-.027c.167-.14.297-.246.593-.483.238-.192.35-.282.483-.393.591-.465.864-.686 1.126-.925.4-.371.746-.806.997-1.252.235-.424.377-.897.414-1.383l.498.038.312-.391zm-3.008 13.32c0-.606.154-1.206.449-1.735.262-.467.62-.916 1.037-1.305.272-.246.535-.46 1.136-.932l.04-.033c.114-.094.112-.092.44-.357.305-.245.45-.363.625-.511.341-.284.66-.602.944-.944a3.48 3.48 0 0 0 .564-1.016 4 4 0 0 0 .227-1.33c0-.629-.093-1.245-.286-1.888a5.735 5.735 0 0 0-.711-1.509 6.772 6.772 0 0 0-1.178-1.263 10.94 10.94 0 0 0-.877-.685c.004.075.005.146.005.29a3.58 3.58 0 0 1-.449 1.735c-.263.467-.62.917-1.037 1.304-.254.23-.523.45-1.056.87l-.033.026-.048.037c-.136.113-.269.221-.483.393-.323.26-.452.365-.617.505-.35.32-.669.64-.948.947a3.517 3.517 0 0 0-.565 1.016c-.131.368-.194.785-.226 1.33 0 .629.093 1.245.286 1.888.158.527.406 1.051.711 1.508a6.74 6.74 0 0 0 1.174 1.26l.16.133c.293.243.511.413.721.555a4.47 4.47 0 0 1-.005-.288zm.133.89v.5a.892.892 0 0 1-.47-.132 8.683 8.683 0 0 1-1.017-.754l-.16-.132a7.762 7.762 0 0 1-1.355-1.457 6.752 6.752 0 0 1-.85-1.795A7.492 7.492 0 0 1 7 13.525c.038-.66.113-1.158.284-1.638.17-.476.414-.915.745-1.327.32-.354.662-.696 1.047-1.05.19-.16.322-.268.652-.534.211-.168.34-.273.48-.39l.06-.046.032-.026c.515-.405.772-.615.998-.82a4.45 4.45 0 0 0 .841-1.056 2.58 2.58 0 0 0 .322-1.248c0-.145 0-.197-.005-.257a1.067 1.067 0 0 0-.011-.088.896.896 0 0 1 1.353-.912c.36.221.626.427 1.173.883.498.41.927.87 1.359 1.46a6.76 6.76 0 0 1 .85 1.794c.22.736.328 1.449.328 2.176 0 .57-.098 1.144-.285 1.667-.17.476-.414.915-.731 1.312-.33.396-.691.757-1.076 1.077-.18.152-.33.274-.64.524-.323.26-.32.258-.43.348l-.048.04c-.592.465-.846.671-1.089.892a4.459 4.459 0 0 0-.841 1.056c-.21.378-.322.81-.322 1.248 0 .145 0 .196.005.256.003.03.006.06.012.09A.898.898 0 0 1 11.179 20v-.5z" /></symbol><symbol viewBox="0 0 24 24" id="restaurant"><g stroke="#FF6262" stroke-width="2" fill="none" fill-rule="evenodd"><circle cx="12" cy="12" r="11" /><path d="M9 6c-.184 2.671.121 4.39.916 5.158a3 3 0 0 0 4.242-.074c.767-.795 1.048-2.49.842-5.084" /><path d="M12 7v11" stroke-linecap="square" /></g></symbol><symbol viewBox="0 0 24 24" id="restaurant-filled"><g fill="none" fill-rule="evenodd"><circle fill="#FF6262" cx="12" cy="12" r="12" /><path d="M9 6c-.184 2.671.121 4.39.916 5.158a3 3 0 0 0 4.242-.074c.767-.795 1.048-2.49.842-5.084" stroke="#FFF" stroke-width="2" /><path d="M12 7v11" stroke="#FFF" stroke-width="2" stroke-linecap="square" /></g></symbol><symbol viewBox="0 0 24 24" id="restaurant-mono"><path d="M10.925 10.363V6h2v4.512c.206-.1.398-.237.566-.412.494-.51.735-1.892.58-4.1h2.005c.171 2.658-.165 4.474-1.146 5.49a3.981 3.981 0 0 1-2.005 1.125V19h-2v-6.45a3.983 3.983 0 0 1-1.651-.962C8.245 10.595 7.882 8.748 8.033 6h2.003c-.134 2.268.127 3.667.627 4.15.083.08.17.15.262.213z" /></symbol><symbol viewBox="0 0 24 24" id="search"><path d="M11 17a6 6 0 1 1 0-12 6 6 0 0 1 0 12zm0-2a4 4 0 1 0 0-8 4 4 0 0 0 0 8z" /><path d="M14.292 15.707a1 1 0 1 1 1.416-1.414l3 3.004a1 1 0 1 1-1.416 1.414l-3-3.004z" /></symbol><symbol viewBox="0 0 40 40" id="share"><path d="M20.295 14.494v2.612h4.38c.804 0 1.455.653 1.455 1.455v7.762c0 .804-.65 1.455-1.455 1.455h-10.22A1.456 1.456 0 0 1 13 26.323v-7.762c0-.803.651-1.455 1.455-1.455h4.38v-2.614l-.823.823a.73.73 0 0 1-1.032-1.032l2.073-2.072c.14-.14.324-.21.509-.211.19.003.375.073.513.211l2.073 2.073a.73.73 0 0 1-1.032 1.032l-.821-.822zm-1.46 4.071H14.46v7.754H24.67v-7.754h-4.376v3.92a.73.73 0 1 1-1.459 0v-3.92zm-2.188-1.459v1.46h5.836v-1.46h-5.836zm2.189 0h1.459v1.46h-1.46v-1.46z" fill="#4B4642" fill-rule="nonzero" /></symbol><symbol viewBox="0 0 40 40" id="share-color"><path d="M20.295 12.494v2.612h4.38c.804 0 1.455.653 1.455 1.455v7.762c0 .804-.65 1.455-1.455 1.455h-10.22A1.456 1.456 0 0 1 13 24.323v-7.762c0-.803.651-1.455 1.455-1.455h4.38v-2.614l-.823.823a.73.73 0 0 1-1.032-1.032l2.073-2.072c.14-.14.324-.21.509-.211.19.003.375.073.513.211l2.073 2.073a.73.73 0 0 1-1.032 1.032l-.821-.822zm-1.46 4.071H14.46v7.754H24.67v-7.754h-4.376v3.92a.73.73 0 1 1-1.459 0v-3.92zm-2.188-1.459v1.46h5.836v-1.46h-5.836zm2.189 0h1.459v1.46h-1.46v-1.46z" fill="#4B4642" fill-rule="nonzero" /></symbol><symbol viewBox="0 0 24 24" id="shop"><g stroke="#65A38B" stroke-width="2" fill="none" fill-rule="evenodd"><circle cx="12" cy="12" r="11" /><path d="M7.913 18h8.174l.818-9h-9.81l.818 9zM9 8l1-3h4l1 3" /></g></symbol><symbol viewBox="0 0 24 24" id="shop-filled"><g fill="none" fill-rule="evenodd"><circle fill="#65A38B" cx="12" cy="12" r="12" /><path d="M7.913 18h8.174l.818-9h-9.81l.818 9zM9 8l1-3h4l1 3" stroke="#FFF" stroke-width="2" /></g></symbol><symbol viewBox="0 0 24 24" id="shop-mono"><path d="M8.826 17h6.348l.636-7H8.19l.636 7zM9 8l-.949-.316L9.28 4h5.442l1.228 3.684L15 8h3l-1 11H7L6 8h3zm1.054 0h3.892l-.667-2h-2.558l-.667 2z" /></symbol><symbol viewBox="0 0 22 22" id="sun"><g transform="translate(1 1)" stroke="#F98560" stroke-width="2" fill="none" fill-rule="evenodd"><circle cx="10" cy="10" r="5.385" /><path d="M10 1.538V0M4.165 4.165L3.077 3.077m14.165 14.165l-1.088-1.088M18.01 3.077l-1.087 1.088M4.165 16.154l-1.088 1.088M10 20v-1.538M18.462 10H20M0 10h1.538" stroke-linecap="round" /></g></symbol><symbol viewBox="0 0 24 24" id="table"><path d="M8.5 11.511c.84.235 1.838.384 2.91.433l.53.025.554-.025a17.35 17.35 0 0 0 3.008-.394l.393-.088v-.024l.621-.254c.978-.4 1.484-.904 1.484-1.212 0-2.63-12-2.63-12 0 0 .328.478.82 1.435 1.212l.222.09.844.237zm.73.963h-1l-.27.963.27.072v2.04c0 .783-1.174.783-1.174 0v-3.44C5.783 11.588 5 10.806 5 9.972c0-3.963 14-3.963 14 0 0 .834-.832 1.616-2.105 2.137v2.92c0 .781-1.175.781-1.175 0v-1.48c.074-.015.147-.03.22-.047l-.22-.976h-1v.193c-.675.11-1.407.19-2.182.224v4.431c0 .835-1.174.835-1.174 0v-4.43a15.722 15.722 0 0 1-2.133-.24v-.23z" fill="#000" fill-rule="nonzero" /></symbol><symbol viewBox="0 0 16 16" id="time"><g fill="#000" fill-rule="evenodd"><path d="M8 14.5v.5c-3.86 0-7-3.14-7-7s3.14-7 7-7 7 3.14 7 7-3.14 7-7 7v-.5zm0 0V14c3.308 0 6-2.692 6-6 0-3.309-2.692-6-6-6S2 4.691 2 8c0 3.308 2.692 6 6 6v.5z" fill-rule="nonzero" /><path d="M10.592 8.826H7.439a.408.408 0 0 1-.408-.408V4.652a.408.408 0 0 1 .816 0V8.01h2.745a.407.407 0 1 1 0 .816" /></g></symbol><symbol viewBox="0 0 40 40" id="twitter"><path d="M27.979 14.549a6.62 6.62 0 0 1-1.885.517 3.299 3.299 0 0 0 1.443-1.816c-.634.37-1.337.64-2.085.79a3.282 3.282 0 0 0-5.593 2.99 9.307 9.307 0 0 1-6.766-3.42 3.222 3.222 0 0 0-.444 1.651c0 1.14.58 2.143 1.46 2.732a3.278 3.278 0 0 1-1.487-.41v.04c0 1.59 1.13 2.918 2.633 3.22a3.336 3.336 0 0 1-1.475.056 3.29 3.29 0 0 0 3.07 2.28A6.578 6.578 0 0 1 12 24.538a9.332 9.332 0 0 0 5.04 1.474c6.04 0 9.34-5 9.34-9.33 0-.14 0-.28-.01-.42a6.63 6.63 0 0 0 1.64-1.7l-.031-.013z" fill="#000" fill-rule="evenodd" /></symbol><symbol viewBox="0 0 40 40" id="twitter-color"><path d="M28.52 14.685a7.187 7.187 0 0 1-2.065.566 3.605 3.605 0 0 0 1.58-1.988 7.198 7.198 0 0 1-2.282.872 3.594 3.594 0 0 0-6.125 3.278 10.204 10.204 0 0 1-7.408-3.755 3.593 3.593 0 0 0 1.112 4.799 3.58 3.58 0 0 1-1.628-.45v.045a3.596 3.596 0 0 0 2.883 3.525 3.6 3.6 0 0 1-1.623.061 3.598 3.598 0 0 0 3.357 2.496A7.212 7.212 0 0 1 11 25.623a10.174 10.174 0 0 0 5.51 1.615c6.611 0 10.226-5.477 10.226-10.227 0-.156-.003-.31-.01-.465a7.305 7.305 0 0 0 1.794-1.86" fill="#1DA1F2" fill-rule="evenodd" /></symbol><symbol viewBox="0 0 24 24" id="x"><path d="M18 6l-6 6 6 6M6 6l6 6-6 6" stroke-width="2" stroke="#4B4642" fill="none" fill-rule="evenodd" /></symbol><symbol viewBox="0 0 24 24" id="x-white"><path d="M18 6l-6 6 6 6M6 6l6 6-6 6" stroke-width="2" stroke="#FFF" fill="none" fill-rule="evenodd" /></symbol></defs><use id="arrow-down-usage" xlink:href="#arrow-down" class="sprite-symbol-usage" /><use id="arrow-left-usage" xlink:href="#arrow-left" class="sprite-symbol-usage" /><use id="arrow-right-usage" xlink:href="#arrow-right" class="sprite-symbol-usage" /><use id="arrow-up-usage" xlink:href="#arrow-up" class="sprite-symbol-usage" /><use id="bar-usage" xlink:href="#bar" class="sprite-symbol-usage" /><use id="bar-filled-usage" xlink:href="#bar-filled" class="sprite-symbol-usage" /><use id="bar-mono-usage" xlink:href="#bar-mono" class="sprite-symbol-usage" /><use id="cafe-usage" xlink:href="#cafe" class="sprite-symbol-usage" /><use id="cafe-filled-usage" xlink:href="#cafe-filled" class="sprite-symbol-usage" /><use id="cafe-mono-usage" xlink:href="#cafe-mono" class="sprite-symbol-usage" /><use id="check-usage" xlink:href="#check" class="sprite-symbol-usage" /><use id="clock-usage" xlink:href="#clock" class="sprite-symbol-usage" /><use id="comment-usage" xlink:href="#comment" class="sprite-symbol-usage" /><use id="divider-usage" xlink:href="#divider" class="sprite-symbol-usage" /><use id="edit-usage" xlink:href="#edit" class="sprite-symbol-usage" /><use id="email-usage" xlink:href="#email" class="sprite-symbol-usage" /><use id="email-color-usage" xlink:href="#email-color" class="sprite-symbol-usage" /><use id="explore-usage" xlink:href="#explore" class="sprite-symbol-usage" /><use id="eye-usage" xlink:href="#eye" class="sprite-symbol-usage" /><use id="facebook-usage" xlink:href="#facebook" class="sprite-symbol-usage" /><use id="facebook-color-usage" xlink:href="#facebook-color" class="sprite-symbol-usage" /><use id="facebook-sign-usage" xlink:href="#facebook-sign" class="sprite-symbol-usage" /><use id="filter-usage" xlink:href="#filter" class="sprite-symbol-usage" /><use id="hamburger-usage" xlink:href="#hamburger" class="sprite-symbol-usage" /><use id="heart-usage" xlink:href="#heart" class="sprite-symbol-usage" /><use id="heart-border-usage" xlink:href="#heart-border" class="sprite-symbol-usage" /><use id="hood-usage" xlink:href="#hood" class="sprite-symbol-usage" /><use id="hotel-usage" xlink:href="#hotel" class="sprite-symbol-usage" /><use id="hotel-filled-usage" xlink:href="#hotel-filled" class="sprite-symbol-usage" /><use id="hotel-mono-usage" xlink:href="#hotel-mono" class="sprite-symbol-usage" /><use id="iconic-usage" xlink:href="#iconic" class="sprite-symbol-usage" /><use id="instagram-usage" xlink:href="#instagram" class="sprite-symbol-usage" /><use id="itinerary-usage" xlink:href="#itinerary" class="sprite-symbol-usage" /><use id="like-usage" xlink:href="#like" class="sprite-symbol-usage" /><use id="liked-usage" xlink:href="#liked" class="sprite-symbol-usage" /><use id="location-usage" xlink:href="#location" class="sprite-symbol-usage" /><use id="phone-usage" xlink:href="#phone" class="sprite-symbol-usage" /><use id="place-usage" xlink:href="#place" class="sprite-symbol-usage" /><use id="place-filled-usage" xlink:href="#place-filled" class="sprite-symbol-usage" /><use id="place-mono-usage" xlink:href="#place-mono" class="sprite-symbol-usage" /><use id="radar-usage" xlink:href="#radar" class="sprite-symbol-usage" /><use id="restaurant-usage" xlink:href="#restaurant" class="sprite-symbol-usage" /><use id="restaurant-filled-usage" xlink:href="#restaurant-filled" class="sprite-symbol-usage" /><use id="restaurant-mono-usage" xlink:href="#restaurant-mono" class="sprite-symbol-usage" /><use id="search-usage" xlink:href="#search" class="sprite-symbol-usage" /><use id="share-usage" xlink:href="#share" class="sprite-symbol-usage" /><use id="share-color-usage" xlink:href="#share-color" class="sprite-symbol-usage" /><use id="shop-usage" xlink:href="#shop" class="sprite-symbol-usage" /><use id="shop-filled-usage" xlink:href="#shop-filled" class="sprite-symbol-usage" /><use id="shop-mono-usage" xlink:href="#shop-mono" class="sprite-symbol-usage" /><use id="sun-usage" xlink:href="#sun" class="sprite-symbol-usage" /><use id="table-usage" xlink:href="#table" class="sprite-symbol-usage" /><use id="time-usage" xlink:href="#time" class="sprite-symbol-usage" /><use id="twitter-usage" xlink:href="#twitter" class="sprite-symbol-usage" /><use id="twitter-color-usage" xlink:href="#twitter-color" class="sprite-symbol-usage" /><use id="x-usage" xlink:href="#x" class="sprite-symbol-usage" /><use id="x-white-usage" xlink:href="#x-white" class="sprite-symbol-usage" /></svg>